<?xml version="1.0" encoding="UTF-8" standalone="no"?>
<!DOCTYPE svg PUBLIC "-//W3C//DTD SVG 1.1//EN"
 "http://www.w3.org/Graphics/SVG/1.1/DTD/svg11.dtd">
<!-- Generated by graphviz version 10.0.1 (0)
 -->
<!-- Title: LogFileConfiguration Pages: 1 -->
<svg width="136pt" height="114pt"
 viewBox="0.00 0.00 135.88 114.00" xmlns="http://www.w3.org/2000/svg" xmlns:xlink="http://www.w3.org/1999/xlink">

<svg id="main" version="1.1" xmlns="http://www.w3.org/2000/svg" xmlns:xlink="http://www.w3.org/1999/xlink" xml:space="preserve" onload="init(evt)">
<style type="text/css"><![CDATA[
.node, .edge {opacity: 0.7;}
.node.selected, .edge.selected {opacity: 1;}
.edge:hover path { stroke: red; }
.edge:hover polygon { stroke: red; fill: red; }
]]></style>
<script type="application/ecmascript" xlink:href="../../svg.min.js"/>
<svg id="graph" class="graph">
<g id="graph0" class="graph" transform="scale(1 1) rotate(0) translate(4 110)">
<title>LogFileConfiguration</title>
<!-- Node1 -->
<g id="Node000001" class="node">
<title>Node1</title>
<g id="a_Node000001"><a xlink:title="Предоставляет тривиальную конфигурацию логгера">
<polygon fill="#999999" stroke="#666666" points="115.75,-21.5 0,-21.5 0,0 115.75,0 115.75,-21.5"/>
<text text-anchor="middle" x="57.88" y="-7.05" font-family="Arial" font-size="11.00">LogFileConfiguration</text>
</a>
</g>
</g>
<!-- Node2 -->
<g id="Node000002" class="node">
<title>Node2</title>
<g id="a_Node000002"><a xlink:title=" ">
<polygon fill="white" stroke="#bfbfbf" points="46,-106 3.75,-106 3.75,-84.5 46,-84.5 46,-106"/>
<text text-anchor="middle" x="24.88" y="-91.55" font-family="Arial" font-size="11.00">string</text>
</a>
</g>
</g>
<!-- Node2&#45;&gt;Node1 -->
<g id="edge1_Node000001_Node000002" class="edge">
<title>Node2&#45;&gt;Node1</title>
<g id="a_edge1_Node000001_Node000002"><a xlink:title=" ">
<path fill="none" stroke="#9a32cd" stroke-dasharray="5,2" d="M21.59,-72.88C20.91,-62.36 21.56,-49.77 26.38,-39.5 29.65,-32.5 35.62,-26.54 41.48,-21.96"/>
<polygon fill="#9a32cd" stroke="#9a32cd" points="18.07,-72.95 22.65,-82.5 25.03,-72.18 18.07,-72.95"/>
</a>
</g>
<text text-anchor="middle" x="48.62" y="-49.3" font-family="Arial" font-size="11.00" fill="grey"> filename</text>
</g>
<!-- Node3 -->
<g id="Node000003" class="node">
<title>Node3</title>
<g id="a_Node000003"><a xlink:title=" ">
<polygon fill="white" stroke="#bfbfbf" points="112.25,-106 71.5,-106 71.5,-84.5 112.25,-84.5 112.25,-106"/>
<text text-anchor="middle" x="91.88" y="-91.55" font-family="Arial" font-size="11.00">usize</text>
</a>
</g>
</g>
<!-- Node3&#45;&gt;Node1 -->
<g id="edge2_Node000001_Node000003" class="edge">
<title>Node3&#45;&gt;Node1</title>
<g id="a_edge2_Node000001_Node000003"><a xlink:title=" ">
<path fill="none" stroke="#9a32cd" stroke-dasharray="5,2" d="M83.76,-73.7C79.66,-63.41 74.57,-50.77 69.88,-39.5 67.41,-33.59 64.57,-27.01 62.27,-21.74"/>
<polygon fill="#9a32cd" stroke="#9a32cd" points="80.4,-74.71 87.34,-82.72 86.91,-72.13 80.4,-74.71"/>
</a>
</g>
<text text-anchor="middle" x="103.88" y="-56.05" font-family="Arial" font-size="11.00" fill="grey"> max_files</text>
<text text-anchor="middle" x="103.88" y="-42.55" font-family="Arial" font-size="11.00" fill="grey">max_size</text>
</g>
</g>
</svg>
</svg>

<style type='text/css'>
<![CDATA[
[data-mouse-over-selected='false'] { opacity: 0.7; }
[data-mouse-over-selected='true']  { opacity: 1.0; }
]]>
</style>
<script type="application/ecmascript"><![CDATA[
document.addEventListener('DOMContentLoaded', (event) => {
  highlightEdges();
  highlightAdjacentNodes();
});
]]></script>
</svg>
